<?xml version="1.0" standalone="no"?>
<!DOCTYPE svg PUBLIC "-//W3C//DTD SVG 20010904//EN"
 "http://www.w3.org/TR/2001/REC-SVG-20010904/DTD/svg10.dtd">
<svg version="1.0" xmlns="http://www.w3.org/2000/svg"
 width="2368.000000pt" height="2368.000000pt" viewBox="0 0 2368.000000 2368.000000"
 preserveAspectRatio="xMidYMid meet">
<metadata>
Created by potrace 1.14, written by Peter Selinger 2001-2017
</metadata>
<g transform="translate(0.000000,2368.000000) scale(0.100000,-0.100000)"
fill="#000000" stroke="none">
<path d="M7205 15452 c-165 -56 -271 -198 -282 -377 -5 -95 -4 -175 3 -186 3
-5 1 -9 -5 -9 -7 0 -7 -8 -2 -22 5 -13 5 -31 2 -42 -4 -10 -4 -40 -1 -66 3
-25 3 -58 -1 -72 -4 -14 -3 -31 1 -38 4 -7 4 -25 0 -40 -4 -15 -4 -33 0 -40 4
-7 4 -25 0 -40 -4 -15 -4 -33 0 -40 4 -7 4 -25 0 -40 -4 -15 -4 -33 0 -40 4
-7 4 -25 0 -40 -4 -15 -4 -33 0 -40 4 -7 4 -25 0 -40 -4 -15 -4 -33 0 -40 4
-7 4 -25 0 -40 -4 -15 -4 -33 0 -40 4 -7 5 -24 1 -39 -4 -14 -6 -35 -5 -46 9
-71 10 -95 4 -95 -4 0 -4 -17 -1 -37 4 -21 4 -49 1 -63 -3 -13 -3 -46 0 -72 4
-27 3 -48 -2 -48 -4 0 -4 -10 1 -22 5 -13 6 -31 2 -40 -3 -9 -4 -54 -1 -99 3
-44 1 -83 -3 -86 -4 -3 -3 -11 4 -19 7 -9 8 -14 1 -14 -7 0 -8 -10 -3 -27 4
-16 5 -39 1 -53 -3 -13 -3 -46 0 -72 4 -27 3 -48 -2 -48 -4 0 -3 -11 2 -24 5
-13 6 -26 3 -29 -5 -6 -6 -118 0 -174 2 -18 -1 -33 -6 -33 -4 0 -6 -4 -3 -8 5
-9 6 -21 7 -137 1 -82 1 -96 0 -127 -2 -63 -3 -84 -2 -98 1 -8 1 -26 0 -40 0
-14 0 -32 0 -40 1 -8 1 -26 0 -40 0 -14 0 -32 0 -40 1 -8 1 -26 0 -40 0 -14 0
-32 0 -40 1 -8 1 -26 0 -40 0 -14 0 -32 0 -40 1 -8 1 -26 0 -40 0 -14 0 -32 0
-40 1 -8 1 -26 0 -40 -1 -28 -1 -55 0 -85 1 -11 2 -58 2 -104 0 -46 2 -88 5
-92 2 -4 0 -11 -6 -14 -8 -5 -7 -11 1 -21 7 -9 8 -14 1 -14 -7 0 -8 -10 -3
-27 4 -16 5 -39 1 -53 -3 -13 -3 -46 0 -73 4 -26 3 -50 -1 -53 -4 -2 -4 -17 0
-32 4 -15 5 -38 1 -52 -4 -14 -3 -35 1 -47 5 -14 5 -23 -1 -23 -6 0 -6 -9 -1
-22 5 -13 6 -31 2 -40 -3 -9 -4 -54 -1 -99 3 -44 1 -83 -3 -86 -4 -3 -3 -11 4
-19 7 -9 8 -14 1 -14 -7 0 -8 -10 -3 -27 4 -16 5 -39 1 -53 -3 -13 -3 -46 0
-72 4 -27 3 -48 -2 -48 -4 0 -3 -11 2 -24 5 -13 6 -26 3 -29 -5 -6 -6 -118 0
-174 2 -18 0 -33 -4 -33 -3 0 -3 -17 0 -37 4 -21 4 -49 1 -63 -3 -13 -3 -46 0
-72 4 -27 3 -48 -2 -48 -4 0 -4 -10 1 -22 5 -13 6 -31 2 -40 -3 -9 -4 -54 -1
-99 3 -44 1 -83 -3 -86 -4 -3 -3 -11 4 -19 7 -9 8 -14 1 -14 -7 0 -8 -10 -3
-27 4 -16 5 -39 1 -53 -3 -13 -3 -46 0 -72 4 -27 3 -48 -2 -48 -4 0 -3 -11 2
-24 5 -13 6 -26 3 -29 -5 -6 -6 -118 0 -174 2 -18 0 -33 -4 -33 -3 0 -3 -17 0
-37 4 -21 4 -49 1 -63 -3 -13 -3 -46 0 -73 4 -26 3 -50 -2 -53 -5 -3 -6 -9 -3
-14 9 -14 12 -80 5 -80 -4 0 -4 -17 -1 -37 4 -21 4 -49 1 -63 -3 -13 -3 -46 0
-72 4 -27 3 -48 -2 -48 -4 0 -4 -10 1 -22 5 -13 6 -31 2 -40 -3 -9 -4 -54 -1
-99 3 -44 1 -83 -3 -86 -4 -3 -3 -11 4 -19 7 -9 8 -14 1 -14 -7 0 -8 -10 -3
-27 4 -16 5 -39 1 -53 -3 -13 -3 -46 0 -72 4 -27 3 -48 -2 -48 -4 0 -3 -11 2
-24 5 -13 6 -27 3 -30 -6 -6 -5 -114 2 -185 13 -132 99 -254 220 -316 74 -37
82 -39 185 -39 75 0 93 3 155 32 61 29 105 63 158 122 25 29 58 96 76 155 8
26 7 6615 0 6635 -3 8 -9 29 -13 45 -23 89 -137 205 -243 248 -66 27 -192 31
-258 9z"/>
<path d="M15415 15463 c-29 -8 -118 -46 -134 -58 -42 -30 -113 -109 -132 -147
-49 -96 -47 32 -47 -2855 -1 -1495 -1 -2722 -2 -2727 0 -5 -14 9 -31 30 -16
22 -42 54 -57 73 -15 19 -40 52 -57 72 -16 20 -41 52 -55 70 -14 18 -45 59
-70 90 -25 31 -56 71 -70 89 -14 18 -54 70 -90 115 -36 45 -76 97 -90 115 -14
18 -30 38 -35 44 -6 6 -40 49 -75 96 -36 47 -67 87 -71 90 -3 3 -18 23 -34 45
-17 22 -32 42 -35 45 -4 4 -129 163 -192 245 -5 6 -24 28 -43 50 -19 22 -35
43 -35 46 0 3 -8 15 -17 27 -35 41 -49 58 -113 142 -36 47 -68 87 -71 90 -3 3
-39 48 -79 100 -40 52 -93 120 -117 150 -24 30 -54 68 -66 84 -12 15 -32 40
-43 55 -12 14 -83 105 -158 201 -75 96 -143 183 -151 192 -7 9 -44 56 -82 105
-37 48 -75 97 -84 108 -61 72 -149 187 -149 194 0 5 -4 11 -8 13 -4 2 -23 23
-42 48 -19 25 -37 47 -40 50 -10 9 -295 371 -305 388 -5 9 -18 25 -28 36 -10
12 -37 46 -60 76 -36 47 -142 182 -180 230 -41 51 -269 341 -301 384 -22 28
-58 74 -80 102 -23 28 -52 66 -66 84 -14 18 -30 38 -35 44 -6 6 -35 43 -64 81
-30 39 -58 71 -63 73 -4 2 -8 10 -8 17 0 7 -4 15 -8 17 -5 2 -39 44 -77 93
-38 50 -74 95 -80 102 -5 7 -15 18 -20 25 -54 68 -122 156 -132 168 -15 19
-101 129 -130 167 -12 15 -30 38 -40 50 -38 45 -49 59 -82 106 -19 26 -38 47
-43 47 -4 0 -8 4 -8 10 0 5 -35 53 -78 107 -43 54 -102 129 -132 167 -78 102
-81 105 -134 163 -41 45 -133 116 -158 123 -4 1 -30 10 -58 20 -42 15 -74 18
-188 16 -117 -3 -168 -8 -179 -16 -2 -2 -6 -3 -10 -4 -5 -1 -28 -12 -52 -25
-82 -43 -182 -166 -197 -244 -2 -10 -6 -28 -10 -39 -6 -20 -8 -6559 -1 -6588
18 -85 74 -183 131 -232 116 -100 283 -124 418 -59 101 48 166 119 213 231 18
44 19 135 21 2855 1 1546 2 2812 3 2814 1 3 71 -82 121 -149 14 -18 30 -38 35
-44 6 -6 22 -27 35 -46 13 -19 29 -39 35 -45 7 -5 43 -50 81 -100 37 -49 72
-94 76 -100 4 -5 23 -28 40 -51 18 -22 42 -53 53 -68 11 -16 25 -33 30 -40 9
-10 104 -130 155 -196 17 -22 96 -123 227 -290 24 -30 46 -59 51 -65 25 -34
118 -152 127 -161 5 -6 17 -22 25 -34 8 -12 22 -30 30 -40 8 -10 22 -27 30
-37 27 -33 224 -285 265 -338 34 -45 126 -163 210 -270 13 -16 32 -40 42 -52
10 -11 25 -31 33 -43 8 -12 20 -28 25 -34 6 -6 44 -54 85 -106 41 -52 78 -99
82 -105 10 -12 170 -216 207 -264 14 -19 54 -69 89 -113 34 -43 62 -81 62 -85
0 -3 8 -13 18 -22 18 -17 44 -50 127 -161 27 -36 52 -67 55 -70 3 -3 21 -25
40 -50 19 -25 45 -56 57 -70 13 -14 23 -30 23 -37 0 -7 3 -13 8 -13 4 0 32
-33 62 -72 30 -40 57 -75 60 -78 3 -3 41 -50 83 -105 43 -55 83 -107 90 -115
7 -8 54 -69 105 -135 52 -66 104 -133 118 -150 13 -16 103 -131 199 -255 97
-124 185 -235 196 -248 10 -12 19 -26 19 -31 0 -5 3 -11 8 -13 6 -2 31 -33 99
-118 27 -35 140 -180 163 -210 14 -18 31 -39 38 -46 6 -7 12 -17 12 -22 0 -6
4 -12 8 -14 7 -2 69 -80 190 -235 9 -13 25 -33 36 -45 10 -13 37 -48 60 -78
22 -30 43 -57 46 -60 4 -3 45 -55 93 -117 206 -266 268 -335 355 -394 81 -55
155 -76 262 -77 52 0 99 2 105 6 5 3 19 8 29 9 38 6 119 59 158 103 43 48 70
100 87 165 13 47 11 6622 -2 6668 -34 125 -174 267 -280 284 -44 8 -163 11
-182 6z"/>
<path d="M18250 15466 c-3 -2 -17 -7 -31 -9 -127 -23 -263 -169 -296 -317 -8
-34 -8 -6567 0 -6603 11 -54 30 -102 55 -142 32 -52 101 -120 130 -129 12 -4
22 -11 22 -16 0 -18 106 -44 180 -44 79 0 108 4 153 23 16 6 30 11 33 11 12 0
73 48 114 90 51 52 96 137 106 201 4 24 7 402 8 839 l1 796 774 773 c720 720
775 773 788 755 29 -40 58 -78 68 -88 9 -9 44 -53 185 -229 8 -11 21 -25 28
-32 6 -8 12 -18 12 -23 0 -6 4 -12 9 -14 7 -2 132 -154 208 -253 37 -48 99
-121 106 -123 4 -2 7 -8 7 -13 0 -5 8 -17 18 -27 9 -10 28 -33 42 -51 14 -18
30 -38 35 -44 24 -27 131 -160 140 -175 6 -9 19 -26 30 -38 22 -24 27 -30 105
-129 30 -39 59 -75 65 -81 13 -16 31 -37 88 -109 26 -33 53 -67 60 -75 8 -8
40 -49 72 -90 32 -41 65 -82 72 -90 8 -8 66 -80 129 -160 64 -80 123 -154 132
-165 9 -11 44 -54 76 -95 33 -41 62 -77 65 -80 4 -3 22 -25 41 -50 50 -64 63
-81 80 -99 8 -9 28 -35 44 -56 17 -22 33 -42 36 -45 3 -3 21 -25 40 -50 19
-25 40 -51 48 -58 7 -8 25 -30 40 -50 15 -21 32 -42 37 -48 6 -6 24 -29 40
-50 17 -21 40 -49 52 -61 12 -13 19 -23 15 -23 -4 0 -2 -4 4 -8 6 -4 91 -108
190 -232 98 -123 186 -234 195 -245 96 -116 121 -144 158 -169 68 -47 134 -65
228 -62 71 2 92 7 157 39 89 45 155 112 200 207 27 58 31 75 31 155 0 159 -19
195 -251 480 -81 99 -161 198 -178 219 -17 22 -43 53 -58 68 -15 16 -27 31
-27 34 1 3 -10 18 -23 32 -13 15 -52 63 -88 107 -35 44 -68 82 -72 83 -5 2 -8
8 -8 13 0 5 -8 17 -17 27 -23 24 -37 41 -158 192 -55 69 -102 127 -105 130 -3
3 -23 28 -45 55 -22 28 -46 57 -55 66 -8 9 -24 29 -34 43 -11 15 -28 37 -39
49 -11 12 -31 38 -46 57 -14 19 -33 41 -41 50 -8 9 -28 33 -45 54 -58 75 -97
121 -106 124 -5 2 -9 9 -9 15 0 7 -18 31 -40 55 -22 24 -40 47 -40 52 0 4 -3
10 -7 12 -5 2 -28 28 -53 58 -25 30 -47 57 -50 60 -3 3 -17 21 -32 42 -15 20
-33 42 -40 50 -7 7 -51 60 -98 118 -46 58 -88 107 -92 108 -5 2 -8 7 -8 12 0
4 -11 21 -24 36 -22 26 -129 157 -159 194 -7 8 -50 62 -97 119 -47 57 -92 113
-100 124 -8 12 -22 29 -31 38 -9 9 -35 42 -59 73 -23 31 -47 56 -52 56 -5 0
-7 4 -4 9 4 5 3 11 -2 13 -4 1 -56 64 -116 138 -60 74 -114 140 -120 145 -7 6
-23 26 -36 45 -21 30 -38 51 -85 104 -25 29 -75 95 -75 101 0 3 195 198 433
435 237 236 658 653 934 927 276 274 658 653 848 841 354 351 411 415 430 485
2 4 3 8 5 10 11 14 20 164 11 182 -3 6 -6 12 -6 15 -3 21 -32 91 -50 120 -27
42 -115 130 -131 130 -6 0 -17 6 -23 14 -6 7 -40 21 -76 31 -120 32 -238 6
-350 -76 -27 -20 -192 -182 -365 -359 -173 -178 -399 -409 -502 -514 -102
-105 -236 -243 -298 -306 -146 -150 -623 -639 -820 -841 -85 -87 -263 -269
-395 -405 -132 -136 -320 -328 -417 -428 -98 -99 -178 -181 -178 -182 0 0 -66
-69 -147 -151 -175 -178 -423 -433 -768 -787 -137 -141 -252 -256 -255 -256
-3 0 -6 890 -6 1978 -1 1087 -4 1994 -8 2015 -10 61 -62 153 -121 212 -31 30
-62 55 -70 55 -8 0 -15 4 -15 9 0 24 -241 67 -260 47z"/>
<path d="M349 15416 c-2 -3 -17 -7 -33 -10 -48 -9 -128 -53 -171 -94 -58 -56
-83 -95 -111 -170 l-24 -67 0 -3255 c0 -2922 2 -3261 16 -3310 8 -30 16 -61
16 -67 1 -7 5 -13 10 -13 4 0 8 -6 8 -14 0 -21 76 -106 129 -144 97 -70 241
-89 356 -48 39 14 84 39 104 57 11 11 25 19 31 19 5 0 10 3 10 8 0 4 15 23 33
43 30 33 54 75 73 124 7 19 9 29 18 78 3 12 5 518 5 1124 l1 1101 50 4 c28 1
50 1 50 -2 0 -6 421 -3 427 3 2 3 20 1 39 -3 19 -4 36 -5 38 -1 2 3 93 4 201
1 108 -3 199 -2 201 1 2 4 20 3 39 -1 19 -4 37 -5 39 -1 2 3 93 4 201 1 108
-3 199 -2 201 1 2 4 19 3 38 -1 19 -4 37 -6 38 -4 2 2 116 6 253 9 138 3 264
7 280 9 28 4 67 8 185 21 25 2 56 7 70 10 14 2 41 7 60 10 19 3 71 13 115 21
44 9 85 17 90 18 6 1 16 5 23 9 6 5 12 6 12 3 0 -2 33 4 72 16 40 11 80 21 88
23 40 9 234 77 300 105 41 17 93 38 115 47 22 9 42 20 45 24 3 4 17 10 32 14
15 4 32 13 39 21 6 8 17 14 24 14 15 0 216 121 282 171 29 21 57 39 63 39 5 0
10 4 10 8 0 4 24 26 53 47 79 60 274 260 342 350 33 44 63 82 68 83 4 2 7 8 7
14 0 5 10 24 23 41 28 40 41 61 69 117 13 25 26 47 30 50 5 4 46 88 53 110 1
3 6 16 12 30 46 107 89 236 108 323 2 10 7 27 10 37 17 52 47 249 40 260 -4 6
-3 10 2 10 4 0 9 17 10 38 5 81 5 469 0 507 -3 22 -8 65 -12 95 -7 60 -60 325
-65 325 -1 0 -3 7 -5 15 -13 58 -70 210 -113 300 -14 30 -26 57 -26 60 -1 3
-13 26 -29 52 -15 26 -27 51 -27 56 0 6 -3 12 -8 14 -4 2 -23 29 -42 61 -19
31 -38 57 -42 57 -4 0 -8 5 -8 11 0 18 -161 208 -236 279 -120 114 -308 260
-333 260 -5 0 -11 4 -13 8 -5 14 -321 186 -331 180 -1 -1 -20 7 -42 16 -51 23
-73 32 -110 44 -16 6 -39 13 -50 18 -11 4 -24 8 -30 10 -5 2 -55 17 -110 34
-55 16 -113 32 -129 35 -16 3 -32 8 -36 10 -4 3 -22 7 -41 9 -42 6 -86 14
-119 22 -48 11 -195 33 -266 39 -27 3 -71 8 -99 11 -55 8 -2689 17 -2696 10z
m2436 -750 c173 -8 270 -17 295 -26 3 -1 9 -2 13 -1 10 2 116 -17 192 -34 52
-11 63 -14 105 -25 25 -7 52 -14 60 -15 8 -2 40 -13 70 -24 30 -11 75 -27 100
-36 58 -21 260 -122 281 -141 8 -8 18 -14 22 -14 28 0 238 -185 330 -290 37
-43 117 -172 154 -250 41 -84 97 -242 106 -297 3 -15 8 -39 11 -53 20 -86 30
-200 30 -355 -1 -155 -8 -232 -34 -345 -27 -116 -26 -110 -54 -189 -69 -190
-193 -380 -343 -524 -89 -86 -111 -103 -213 -172 -81 -54 -279 -166 -295 -166
-2 0 -24 -8 -47 -18 -74 -31 -270 -92 -343 -106 -188 -38 -305 -53 -444 -60
-46 -2 -86 -6 -89 -9 -3 -3 -11 -1 -19 5 -7 6 -13 7 -13 3 0 -11 -82 -10 -99
0 -6 4 -11 4 -11 -1 0 -4 -34 -8 -75 -8 -43 0 -75 4 -75 10 0 7 -3 7 -8 0 -4
-6 -38 -10 -77 -10 -38 0 -73 4 -77 10 -5 7 -8 7 -8 0 0 -6 -32 -10 -75 -10
-43 0 -75 4 -75 10 0 7 -3 7 -8 0 -8 -12 -392 -14 -392 -2 0 5 -5 5 -12 1 -17
-11 -168 -11 -168 0 0 5 -6 4 -12 -1 -7 -5 -44 -7 -83 -6 -38 2 -76 3 -82 3
-11 0 -137 0 -208 0 -8 0 -49 0 -90 0 -41 0 -81 0 -87 0 -7 0 -35 -1 -63 -2
l-50 -2 -3 1576 -2 1577 27 3 c47 5 1811 0 1938 -6z"/>
</g>
</svg>
